<svg width="50" height="50" viewBox="0 0 50 50" fill="none" xmlns="http://www.w3.org/2000/svg">
	<path d="M24.9998 49.9997C38.8069 49.9997 49.9997 38.8069 49.9997 24.9998C49.9997 11.1928 38.8069 0 24.9998 0C11.1928 0 0 11.1928 0 24.9998C0 38.8069 11.1928 49.9997 24.9998 49.9997Z" fill="#A6D9EA"/>
	<path d="M25.3549 11.4082C25.3549 11.4082 21.8567 10.5852 18.8737 12.848C15.8908 15.1112 17.4747 18.3314 14.5943 20.9031C11.7146 23.4747 12.1256 25.7886 13.7202 28.6172C15.314 31.4458 11.7101 32.7678 12.7265 36.2198C13.7122 39.5657 17.217 41.277 17.217 41.277H32.903C32.903 41.277 37.9609 37.5374 38.2178 34.8117C38.4748 32.0857 35.6303 30.7284 36.4533 28.8255C37.2757 26.9225 37.3351 24.2535 35.4428 22.1668C33.1102 19.5951 34.9168 19.0584 33.1603 15.5032C31.1329 11.4006 28.1818 10.5106 25.3549 11.4082Z" fill="#471B18"/>
	<path d="M36.9725 40.3874C35.361 37.3367 24.9999 35.4224 24.9999 35.4224C24.9999 35.4224 14.6389 37.3367 13.0274 40.3874C11.8362 44.6209 10.8398 50 10.8398 50H24.9999H39.16C39.16 50 38.4869 44.2324 36.9725 40.3874Z" fill="#F1C9A5"/>
	<path d="M25 35.4224C25 35.4224 35.361 37.3367 36.9725 40.3874C38.487 44.2324 39.1601 50 39.1601 50H25V35.4224Z" fill="#E4B692"/>
	<path d="M27.8202 29.2202H22.179V38.6612H27.8202V29.2202Z" fill="#F1C9A5"/>
	<path d="M27.8203 29.2202H25V38.6612H27.8203V29.2202Z" fill="#E4B692"/>
	<path opacity="0.1" d="M22.179 33.595C22.6863 35.0514 24.734 35.8862 26.2377 35.8862C26.7813 35.8862 27.3111 35.795 27.8202 35.6282V29.2202H22.179V33.595Z" fill="#DDAC8C"/>
	<path d="M32.2528 23.263C32.2528 17.3662 29.0056 14.013 25 14.013C20.9945 14.013 17.7473 17.3662 17.7473 23.263C17.7473 29.1598 20.9945 33.9407 25 33.9407C29.0056 33.9407 32.2528 29.1601 32.2528 23.263Z" fill="#F1C9A5"/>
	<path d="M31.1484 27.3515C29.8336 27.205 28.946 25.6996 29.1688 23.9903C29.3888 22.2797 30.6338 21.0098 31.9493 21.1552C33.2635 21.3009 34.1497 22.8057 33.9279 24.5163C33.7069 26.2269 32.4632 27.4958 31.1484 27.3515Z" fill="#E4B692"/>
	<path d="M16.1229 24.5163C15.9009 22.8057 16.7874 21.3006 18.1009 21.1552C19.4167 21.0098 20.6621 22.2797 20.8828 23.9903C21.1049 25.6996 20.2163 27.2054 18.9025 27.3515C17.5873 27.4958 16.3436 26.2269 16.1229 24.5163Z" fill="#F1C9A5"/>
	<path d="M32.2527 23.263C32.2527 17.3662 29.0056 14.013 25 14.013V33.9407C29.0056 33.9407 32.2527 29.1601 32.2527 23.263Z" fill="#E4B692"/>
	<path d="M16.1958 50H24.9999H33.7678V40.4789H16.1958V50Z" fill="white"/>
	<path d="M23.298 50L21.6595 36.1828C17.9935 36.7582 13.8394 38.8487 13.0274 40.3873C11.8362 44.6209 10.8398 50 10.8398 50H23.298Z" fill="#FE393E"/>
	<path d="M27.3999 50H39.16C39.16 50 38.4869 44.2323 36.9725 40.3873C35.6504 38.0319 30.4246 36.7561 28.6035 36.2198L27.3999 50Z" fill="#FE393E"/>
	<path d="M24.9816 17.1589C24.9816 17.1589 23.4188 20.5304 21.2171 21.591C17.7472 23.2633 20.7577 25.8163 20.3536 29.2206C19.9893 32.2919 16.4216 33.6934 18.5028 36.9962C14.8851 37.7087 15.0578 35.8865 15.0578 35.8865C15.0578 35.8865 14.7124 26.401 14.6261 26.1834C14.5397 25.9658 16.6983 20.0945 16.6983 20.0945L19.8024 13.4462L25.3546 12.3227L24.9816 17.1589Z" fill="#471B18"/>
	<path d="M24.9816 17.1589C24.9816 17.1589 25.1564 19.8065 27.8202 20.0369C30.4847 20.2672 30.8301 22.2189 30.3121 23.9772C29.794 25.7354 29.5633 26.7142 31.0028 28.0957C32.4416 29.4772 30.8301 34.8117 30.8301 34.8117L36.126 32.2916C36.126 32.2916 34.9963 28.008 35.6079 25.6204C36.2196 23.2329 33.4777 21.5337 32.787 19.8068C32.0962 18.08 28.6284 11.8496 25.8223 12.3227C23.0155 12.7959 23.298 15.7774 23.298 15.7774L24.9816 17.1589Z" fill="#471B18"/>
	</svg>
	